<?xml version="1.0" encoding="utf-8"?>
<!-- Generator: Adobe Illustrator 25.2.1, SVG Export Plug-In . SVG Version: 6.00 Build 0)  -->
<svg version="1.1" id="Ebene_1" xmlns="http://www.w3.org/2000/svg" xmlns:xlink="http://www.w3.org/1999/xlink" x="0px" y="0px"
	 viewBox="0 0 300 200" style="enable-background:new 0 0 300 200;" xml:space="preserve">
<style type="text/css">
	.st0{fill:#1D1D1B;}
	.st1{fill:#52AE32;}
	.st2{fill:#004F9F;}
</style>
<g id="Logo">
	<path class="st0" d="M29.2,159.5c1.3,0.8,2.7,1.1,4.2,1.1c2.3,0,4.2-1.2,4.2-3.8c0-3.7-8.6-4.2-8.6-9.1c0-3,2.6-4.9,6-4.9
		c1.3,0,2.5,0.2,3.7,0.6l-0.3,1.7c-1.1-0.5-2.2-0.7-3.4-0.7c-2,0-4.1,0.8-4.1,3.2c0,3.8,8.6,3.8,8.6,9.3c0,3.8-3.3,5.3-6.2,5.3
		c-1.5,0-2.9-0.3-4.3-0.8L29.2,159.5z"/>
	<path class="st0" d="M48.9,149.6h-3.1v8.9c0,1.2,0.5,2.3,1.8,2.3c0.5,0,1.1-0.1,1.6-0.3l0.1,1.4c-0.7,0.2-1.4,0.4-2.1,0.4
		c-3,0-3.1-2.1-3.1-4.6v-8h-2.7v-1.5h2.7v-3.3l1.7-0.6v3.9h3.1L48.9,149.6z"/>
	<path class="st0" d="M59.9,159.7L59.9,159.7c-0.9,1.6-2.6,2.6-4.4,2.5c-3.9,0-4.5-2.7-4.5-3.9c0-4.6,4.9-4.8,8.5-4.8h0.3v-0.7
		c0-2.3-0.8-3.5-3.1-3.5c-1.4,0-2.9,0.4-4.1,1.1v-1.7c1.3-0.6,2.7-0.9,4.1-0.9c3.4,0,4.8,1.5,4.8,5.1v6.1c0,1,0,1.9,0.1,2.9h-1.7
		V159.7z M59.7,154.9h-0.5c-2.9,0-6.5,0.3-6.5,3.3c0,1.8,1.3,2.5,2.9,2.5c4.1,0,4.1-3.5,4.1-5L59.7,154.9z"/>
	<path class="st0" d="M76.3,161.9h-1.7v-2.2l0,0c-0.8,1.6-2.5,2.6-4.3,2.5c-3.8,0-5.7-3.1-5.7-7.2c0-4.1,1.6-7.2,5.7-7.2
		c1.8,0,3.5,1,4.3,2.7l0,0v-8.8h1.7V161.9z M70.6,160.7c3,0,4.1-3.2,4.1-5.7c0-2.5-1.1-5.7-4.1-5.7c-3.2,0-4.1,3.1-4.1,5.7
		C66.5,157.7,67.3,160.7,70.6,160.7L70.6,160.7z"/>
	<path class="st0" d="M86.4,149.6h-3.1v8.9c0,1.2,0.5,2.3,1.8,2.3c0.5,0,1.1-0.1,1.6-0.3l0.1,1.4c-0.7,0.2-1.4,0.4-2.1,0.4
		c-3,0-3.1-2.1-3.1-4.6v-8h-2.7v-1.5h2.7v-3.3l1.7-0.6v3.9h3.1L86.4,149.6z"/>
	<path class="st0" d="M103.6,161.9h-2L97.8,150l0,0l-3.8,11.9h-2l-4.4-13.8h1.9l3.6,11.9l0,0l3.8-11.9h2l3.6,11.9l0,0l3.8-11.9h1.7
		L103.6,161.9z"/>
	<path class="st0" d="M119.7,161.4c-1.3,0.5-2.7,0.8-4.1,0.8c-4.6,0-6.3-3.1-6.3-7.2s2.3-7.2,5.8-7.2c3.9,0,5.4,3.1,5.4,6.8v0.9
		h-9.3c0,2.9,1.6,5.3,4.5,5.3c1.3,0,2.7-0.4,3.9-1L119.7,161.4z M118.9,154c0-2.4-1-4.8-3.5-4.8c-2.5,0-4.1,2.5-4.1,4.8H118.9z"/>
	<path class="st0" d="M123.9,151.2c0-1,0-2.1-0.1-3.1h1.7v2.7l0,0c0.4-1.7,1.9-2.9,3.6-3c0.4,0,0.8,0.1,1.2,0.2v1.8
		c-0.4-0.1-0.8-0.2-1.2-0.2c-2.7,0-3.4,3-3.4,5.5v6.8H124L123.9,151.2z"/>
	<path class="st0" d="M132.9,141.6h1.7v12.1l6.2-5.6h2.2l-6.7,6.1l7.5,7.7h-2.4l-6.8-7.1v7.1h-1.7L132.9,141.6z"/>
	<path class="st0" d="M155.6,161.4c-1.3,0.5-2.6,0.8-4,0.8c-4.6,0-6.3-3.1-6.3-7.2s2.3-7.2,5.8-7.2c3.9,0,5.4,3.1,5.4,6.8v0.9h-9.4
		c0,2.9,1.6,5.3,4.5,5.3c1.3,0,2.7-0.4,3.8-1L155.6,161.4z M154.8,154c0-2.4-1-4.8-3.5-4.8c-2.5,0-4.1,2.5-4.1,4.8H154.8z"/>
	<path class="st0" d="M167.6,143h2.9l6.9,16.6l6.9-16.6h2.7v18.8h-1.9v-17l0,0l-6.9,17h-1.7l-7.1-17l0,0v17h-1.9L167.6,143z"/>
	<path class="st0" d="M202.2,158.6c0,1.1,0,2.1,0.1,3.2h-1.7v-2.4l0,0c-0.7,1.8-2.5,2.9-4.4,2.8c-3.4,0-4.7-2.3-4.7-5.3v-8.8h1.7
		v8.4c0,2.6,0.9,4.3,3.3,4.3c3.1,0,4.1-2.7,4.1-5v-7.6h1.7L202.2,158.6z M193.5,143.5h2v2.3h-2V143.5z M198.1,143.5h2v2.3h-2V143.5z
		"/>
	<path class="st0" d="M206.4,151.4c0-1,0-2.1-0.1-3.2h1.6v2.5l0,0c0.7-1.8,2.5-3,4.5-2.8c3.4,0,4.7,2.3,4.7,5.3v8.8h-1.7v-8.4
		c0-2.6-0.9-4.3-3.3-4.3c-3.1,0-4.1,2.7-4.1,5v7.6h-1.7V151.4z"/>
	<path class="st0" d="M230.4,150c-0.9-0.4-1.9-0.7-2.9-0.7c-3.3,0-5.2,2.4-5.2,5.7c0,3.1,1.9,5.7,5,5.7c1.1,0,2.1-0.2,3.1-0.6
		l0.2,1.6c-1.1,0.4-2.3,0.5-3.5,0.5c-4.4,0-6.6-3.4-6.6-7.2c0-4.2,2.7-7.2,6.8-7.2c1.1,0,2.3,0.2,3.3,0.5L230.4,150z"/>
	<path class="st0" d="M233.4,141.6h1.7v8.8l0,0c0.8-1.7,2.5-2.7,4.3-2.7c3.7,0,4.7,2.5,4.7,5.9v8.2h-1.7v-8.1c0-2.4-0.5-4.4-3.3-4.4
		c-3,0-4.1,2.9-4.1,5.3v7.4h-1.7L233.4,141.6z"/>
	<path class="st0" d="M257.6,161.4c-1.3,0.5-2.6,0.8-4,0.8c-4.6,0-6.3-3.1-6.3-7.2s2.3-7.2,5.8-7.2c3.9,0,5.4,3.1,5.4,6.8v0.9h-9.5
		c0,2.9,1.6,5.3,4.5,5.3c1.3,0,2.7-0.4,3.8-1L257.6,161.4z M256.8,154c0-2.4-1-4.8-3.5-4.8s-4.1,2.5-4.1,4.8H256.8z"/>
	<path class="st0" d="M261.9,151.4c0-1,0-2.1-0.1-3.2h1.7v2.5l0,0c0.7-1.8,2.5-3,4.5-2.8c3.4,0,4.7,2.3,4.7,5.3v8.8h-1.7v-8.4
		c0-2.6-0.9-4.3-3.3-4.3c-3.1,0-4.1,2.7-4.1,5v7.6h-1.7V151.4z"/>
	<polygon class="st1" points="205,37.8 160.7,118.4 176.4,118.4 220.8,37.8 	"/>
	<polygon class="st2" points="179.1,37.8 134.7,118.4 150.5,118.4 194.9,37.8 	"/>
	<polygon class="st0" points="83.4,50.1 83.4,106 97.8,106 116.5,73.7 116.5,106 131.3,106 162.3,50.1 148.4,50.1 131.1,80.5 
		131.1,50.1 115.4,50.1 97.8,79.8 97.8,50.1 	"/>
	<polygon class="st0" points="193.6,106 207.5,106 224.7,76.1 224.7,106 239.7,106 258,76.2 258,106 272.6,106 272.6,50.1 258,50.1 
		239.7,82.3 239.7,50.1 224.3,50.1 	"/>
	<path class="st0" d="M42.3,86.9c0.1,5.3,4.5,9.5,9.8,9.5c5.4,0,9.8-2.7,9.8-6c0-1.9-1.1-4.3-5.5-5.4c0,0-3.3-1-5.4-1.6
		c-3-0.9-4.8-1.1-7.7-2.2c-2-0.7-3-1.2-5-2c-5.9-3.1-9.3-8.4-8.9-14.3c-0.5-9.7,10.3-17.1,23-17.1s23,7.7,23,17.1v1.6H60.3v-1.1
		c0-3.1-3.6-5.7-8-5.7h-1c-3.9,0-7.1,1.8-7.1,3.9v0.6c0,1.6,1.4,3,3.5,3.9c2,0.8,4,1.4,6,2c2.7,0.8,4.3,1.1,7,2
		c2.7,0.9,7.2,2.8,7.2,2.8c4.9,2.1,8.8,7.2,8.8,12c0.7,12.6-8.1,20.3-24.7,20.3s-24.7-7.5-24.7-20.4L42.3,86.9z"/>
</g>
</svg>
